PathFileType	4	(X/Y/Z)	pose2sim_0-675.trc
DataRate	CameraRate	NumFrames	NumMarkers	Units	OrigDataRate	OrigDataStartFrame	OrigNumFrames
50	50	8	22	m	50	591	676
Frame#	Time	Hip			RHip			RKnee			RAnkle			RBigToe			RSmallToe			RHeel			LHip			LKnee			LAnkle			LBigToe			LSmallToe			LHeel			Neck			Head			Nose			RShoulder			RElbow			RWrist			LShoulder			LElbow			LWrist			
		X1	Y1	Z1	X2	Y2	Z2	X3	Y3	Z3	X4	Y4	Z4	X5	Y5	Z5	X6	Y6	Z6	X7	Y7	Z7	X8	Y8	Z8	X9	Y9	Z9	X10	Y10	Z10	X11	Y11	Z11	X12	Y12	Z12	X13	Y13	Z13	X14	Y14	Z14	X15	Y15	Z15	X16	Y16	Z16	X17	Y17	Z17	X18	Y18	Z18	X19	Y19	Z19	X20	Y20	Z20	X21	Y21	Z21	X22	Y22	Z22	
591	11.82	0.11388605991151665	0.7897922344589346	-0.034760324590874005	0.02580924112665742	0.7785589810421446	-0.020805235811016835	-0.023463304400656557	0.4178254513661355	-0.050788972524394946	-0.07316699902226398	0.07268422679157552	-0.07195516037401739	-0.09316759407958741	0.036436005142724326	0.07418096321326693	-0.1291307976261719	0.038021281365546444	0.03229509832785777	-0.07209124776594172	0.036150821976668766	-0.10139522516773332	0.20684366644855276	0.7775213092643599	-0.0359269648574056	0.2551386388842507	0.4127185477883315	-0.07832568054529461	0.27910044529228056	0.07339291177856974	-0.0926422574952767	0.33294495401280544	0.03716661150913165	0.04705198417039714	0.35822057986680117	0.03692423260608513	-0.0031805058950717387	0.2650015753518181	0.03243705962583709	-0.12000450114042167	0.1211518043909153	1.2882467350600246	-0.03820330022304588	0.1313091645469571	1.5034768591055294	-0.034536399800363694	0.15034717302133896	1.3959589547360731	0.04435001419191039	-0.027951973082322147	1.2085307019083802	-0.03502455658743051	-0.08786634899690261	0.9845824037578685	0.0064543332380470825	-0.1286018605076853	0.9418402176763332	0.21560214615864443	0.2647538729086638	1.200869861881596	-0.06383758872710013	0.3403980137205971	0.9981707072810977	-0.031246513008012976	0.408780854311867	0.9434541490844105	0.17132117995780308
592	11.84	0.11436697824463449	0.7932844114059883	-0.03218444125556743	0.026838589532159743	0.7805076694231136	-0.019005017123549156	-0.022857952772694833	0.4202260789939334	-0.044507788166884575	-0.07140438591470587	0.07139868888568246	-0.06368257456040896	-0.08368638729478682	0.03691818061313166	0.09756637653745515	-0.12321367840275235	0.03591378654548798	0.05326868082386145	-0.07196180649580756	0.02825099323231692	-0.09229684640515276	0.20606463423367077	0.779082453762251	-0.037514905421225535	0.25466061302856646	0.4169520186840724	-0.07043947904030091	0.2805011082471	0.07066021756718009	-0.09451045466869398	0.32640273143752657	0.032318109456464794	0.06854477223465728	0.3521707277843588	0.02937810302469967	0.016193351972607094	0.26861834859624045	0.030008856674941752	-0.11825451568887728	0.11998871490559467	1.2854847260486575	-0.03823043971555896	0.1310649337411923	1.5037621144462618	-0.03302738318605423	0.13880349372462	1.3949319321665952	0.06326988014924503	-0.029573180194693488	1.2024459245475747	-0.04186663263454904	-0.08958900780169304	0.9836476092158869	0.00573832442685778	-0.13070068825862907	0.9152904020305509	0.2169000960475888	0.26813313012744366	1.1991620537491379	-0.04914310356413358	0.3410028379674794	0.9988219877641196	-0.03635902088935759	0.4111119204753868	0.9317239481912253	0.15517975345656856
593	11.86	0.1141021905001791	0.7893359744791545	-0.03644566483793439	0.027041566356560354	0.7778397952511552	-0.024725982064850566	-0.023022887551133023	0.41625101828063193	-0.04427518644443286	-0.07114263459239173	0.07262501911837257	-0.06563632224516296	-0.09406476460465887	0.03649563499933758	0.08564049679703521	-0.13090378739563852	0.037291160178147806	0.03944044110535057	-0.07159089906680013	0.035976176883739365	-0.09924180560533948	0.20843740559673493	0.777289108681989	-0.0428862845290505	0.25499034472355336	0.41358242760529995	-0.07762281469783255	0.27932002459751093	0.07285651961894907	-0.0913965277039807	0.32858902392014144	0.03694310454877524	0.0523196040174397	0.3559477849152467	0.03905294812969658	0.0007410772032189418	0.26575029871862954	0.03318545229835127	-0.11915803060030776	0.1217847247243363	1.2881625449909904	-0.033645026482830645	0.13108784780333127	1.503098749845816	-0.02767348026471319	0.14768932839696813	1.3932058823970368	0.06064023613112003	-0.024210470642525662	1.2083476923431191	-0.03254219048765602	-0.08605068742433952	0.9873629687480667	-0.0024685182576871323	-0.12937366493311636	0.8952316663675078	0.19776755553693443	0.2644609170820639	1.2004492691910669	-0.060726368250201695	0.34344033970161475	0.9977102146075723	-0.03933860088246761	0.41681771807017387	0.9118705798621393	0.15183109984221352
594	11.88	0.11356168793597524	0.7899307899018205	-0.037497819452702634	0.024124702225842953	0.7796992003997661	-0.02779075446038457	-0.021905053673772875	0.4160022722666313	-0.04494058340178525	-0.07186300826438254	0.07400043498454129	-0.07306504079476683	-0.09100156573000497	0.036898739526014815	0.08383538096945323	-0.1283560399446245	0.03836116574233242	0.037970389119008414	-0.07250928964698874	0.03629250616568898	-0.10543917850899619	0.20756355806390878	0.7766942378152776	-0.03904777655364466	0.2558097042311674	0.4119740334012271	-0.07985820546988746	0.27940752577296923	0.07425800266023397	-0.09366859751973873	0.33030813122235236	0.03975145202372641	0.05062423066191169	0.3588188077883794	0.040367420724910966	-0.0034832561526948152	0.2690523804845489	0.03441601399964966	-0.12001457955001742	0.12108169915500601	1.2866732004136607	-0.03388990924499511	0.13260711875329934	1.5026997506996491	-0.0279539138793984	0.1494943312330403	1.3921385357765181	0.06604417174988873	-0.026465443736079997	1.208200933952257	-0.029085522210183873	-0.0910838696935235	0.9896235077755521	-0.00046992983145270563	-0.13384467296256852	0.8881153355387393	0.19581072921352446	0.26462735187508085	1.1992381966159202	-0.05918319587026821	0.3426163884354071	0.9926642694471705	-0.04344589535766503	0.41959748434470284	0.8991748514065905	0.13713108003555982
595	11.9	0.1130536403420196	0.7894780027759736	-0.034650223869445704	0.02503667015225165	0.779131670367313	-0.022566797596841465	-0.022978243015130493	0.41711170879042175	-0.0471569715721484	-0.0726997238990371	0.07199770920584642	-0.06911692381671537	-0.08975514331628352	0.04007660709061084	0.08391045554837258	-0.12897260378989345	0.038776608406252015	0.0384355381889674	-0.07249162320961003	0.03553273863804551	-0.10869749067301013	0.20689353007988542	0.777222656274086	-0.039985153456598414	0.25532289186187485	0.41340550498864687	-0.07957104704247481	0.28035222032877644	0.07591965094839878	-0.09269761368910362	0.3346905939411926	0.03776633594346117	0.047650544608646046	0.3603180908532334	0.0375147943246255	0.0008528512915563677	0.26626605371753925	0.034887431144760256	-0.11990066230272654	0.12310173577362823	1.286938103117031	-0.03035449541877747	0.13230730590056358	1.502216337127428	-0.024509559577382198	0.1462379097906632	1.3915908704384312	0.060157124138161995	-0.026122677158015875	1.2083784997676277	-0.028407885291524344	-0.0883612912896966	0.9882941295878679	-0.007127646740435895	-0.13952161800114943	0.8768058424864025	0.17896825876018155	0.2666341385911082	1.1970340629649106	-0.059638481680078334	0.3433503012201311	0.992319397359774	-0.04324831437575169	0.422069104264461	0.887595333206992	0.13283249984820145
596	11.92	0.1149518716619084	0.7955611440279495	-0.026071160378904702	0.029479513411835516	0.7825401467329781	-0.015712978853478204	-0.023809195193175533	0.4155322862278492	-0.046877502183256994	-0.07128247622782898	0.07069910758093946	-0.06502649212093141	-0.08643669680435784	0.03447932250715813	0.10130328329484767	-0.1271068490373955	0.03399346497592272	0.05727618675947844	-0.07357452296778622	0.025329086092285368	-0.09801577973675267	0.20606055056610004	0.7793124235493446	-0.03010931809360873	0.2559748965590866	0.41407715270385265	-0.07391255707590684	0.28078631784659003	0.06519477285816526	-0.09695405621231157	0.3253373629954724	0.034433849789193664	0.06589963957592666	0.35139120883661423	0.02890375818513237	0.01896126378079905	0.27191808934317385	0.024756491471686296	-0.11594921850683917	0.12231683664613696	1.2860474944422302	-0.03102078181561503	0.13253839448172386	1.5040193148739778	-0.02323686980669668	0.1416318517434826	1.3955473535855447	0.06422415836887005	-0.02991341680226788	1.203573449058263	-0.03063091356154924	-0.09445479108694847	0.97851605307897	-0.004548690651878987	-0.14870351685944022	0.8674455072496956	0.180105567465677	0.266147529523848	1.1993303096080121	-0.04756575545749625	0.34296834181796504	0.9891587863462865	-0.038559152680356645	0.4237594906230721	0.8812782309400141	0.12552522989929524
597	11.94	0.11305173643415463	0.7901868319548071	-0.03279744627988619	0.025629852629433292	0.7823882390075279	-0.022117090308204728	-0.02085462713358438	0.41966765827713165	-0.043240011734733456	-0.07238384872279295	0.07275151418864033	-0.067174417636911	-0.09570882984560039	0.0327441746597482	0.07869355992847477	-0.13191707777267625	0.036353790763904055	0.03707398592766123	-0.07048378413178175	0.03463695498029985	-0.09995006044965417	0.20746570824844707	0.780467726086882	-0.033856048820356754	0.2535028947160085	0.41345698797745706	-0.07699640081672246	0.28008526676941664	0.0741146471512688	-0.09332026620478084	0.33023630793009084	0.03946235899380311	0.04916584586178154	0.3570499539358872	0.03915283590757332	-0.00024081826228641824	0.2675530278759362	0.03306837149051659	-0.11641485268949096	0.1228422663466814	1.28588331405112	-0.026578480512988358	0.13359316458976786	1.5021449695354911	-0.01820007576718503	0.15156111784424603	1.3931980616654964	0.06010510426282276	-0.024075292386471246	1.2070205166391281	-0.01818625731960516	-0.08852827714393328	0.9877873341582161	-0.005207356644744175	-0.14663900426304066	0.8593578994025127	0.15994543568663405	0.26608263113963	1.2001983882264615	-0.054483042476236566	0.34177997100293867	0.9920667027491986	-0.04227322167504338	0.4260110996393089	0.871209697544166	0.11207895526152122
598	11.96	0.1127881904149951	0.7912583299185014	-0.0293073039465825	0.02334041626360867	0.7824951289318303	-0.018164299153760954	-0.023155035178319662	0.4208891547840833	-0.043360483690485785	-0.07358002355819097	0.07393416742314847	-0.07013928109173756	-0.0954580770672663	0.03757474939716577	0.07506318357911651	-0.13159535757369298	0.038502625739275036	0.03242579861028	-0.0732223066981905	0.034863155858185044	-0.1057152042387458	0.20768607348839502	0.7803524308055273	-0.03101084458760268	0.25460439895702863	0.41326859018578194	-0.07287779957549467	0.28052657475173803	0.0742309214543456	-0.08986955225198995	0.330404920359456	0.03809894703875299	0.047791064263355165	0.35924209045231054	0.038635675212326435	-0.003016826395606207	0.2666037681578021	0.03329785094758174	-0.11698121827855576	0.12465754605608678	1.2860556963963634	-0.027310713997011477	0.13291444407987374	1.5037935939448521	-0.01849492159968483	0.15215486997839647	1.3924750938579882	0.06292572273191294	-0.023785150423335233	1.2075170195869733	-0.019731661823889964	-0.09030852675279515	0.9877122886579462	-0.005814481049407917	-0.1464276312397781	0.8497131067733021	0.14874717276292093	0.26694568008688246	1.197633688190244	-0.0542701511674953	0.3446913581096207	0.9875517169517365	-0.042239006472402044	0.4276352169990409	0.8602939637224492	0.09757084920117692
